#!OML:ASF I:\Actors\actors\Patient Classification 2\Patient 1\Session 1\actor1.ASF
:FULLY-SPECIFIED
:DEGREES
329
root -0.713692 18.6962 5.70022 2.55878 -2.99709 -1.68643
lowerback -0.443253 1.37884 -0.373609
upperback -2.32557 1.83817 0.0999893
thorax -2.14948 0.926622 0.284899
lowerneck -10.9498 -2.89681 -1.81771
upperneck 30.1358 -4.9519 3.78794
head 11.7992 -1.97735 1.06772
rclavicle -9.16894e-015 2.38542e-015
rhumerus -39.4524 34.6176 -90.6269
rradius 116.223
rwrist -26.0535
rhand -5.19421 -36.9904
rfingers 7.12502
rthumb 20.6068 -65.9166
lclavicle -9.16894e-015 2.38542e-015
lhumerus -38.0247 -36.4254 98.5829
lradius 113.135
lwrist 40.3923
lhand -14.4391 -27.4091
lfingers 7.12502
lthumb 11.7057 2.24381
rfemur 0 0 0
rtibia 0
rfoot 0 0
rtoes 0
lfemur -4.1328 -8.74401 -12.9973
ltibia 20.8908
lfoot -26.0593 18.0046
ltoes -53.721
330
root -0.713267 18.696 5.69995 2.54819 -3.00759 -1.67341
lowerback -0.453391 1.38246 -0.378491
upperback -2.33277 1.84246 0.0714866
thorax -2.15043 0.928566 0.258539
lowerneck -10.8829 -2.9148 -1.84619
upperneck 30.2649 -4.99617 3.84464
head 11.841 -1.99284 1.08951
rclavicle 2.1593e-014 -3.37934e-015
rhumerus -39.3351 34.5871 -90.5493
rradius 116.255
rwrist -26.1939
rhand -4.87183 -37.305
rfingers 7.12502
rthumb 20.9166 -66.1973
lclavicle 2.1593e-014 -3.37934e-015
lhumerus -37.9958 -36.467 98.517
lradius 113.188
lwrist 40.3448
lhand -14.3895 -27.5002
lfingers 7.12502
lthumb 11.7536 2.15001
rfemur 0 0 0
rtibia 0
rfoot 0 0
rtoes 0
lfemur -4.11833 -8.6858 -13.0116
ltibia 20.879
lfoot -25.992 18.001
ltoes -53.8191
331
root -0.712005 18.6951 5.70051 2.53284 -3.02114 -1.62666
lowerback -0.455016 1.40202 -0.404491
upperback -2.33916 1.86759 0.0298584
thorax -2.15573 0.941192 0.230016
lowerneck -10.8857 -2.94494 -1.97193
upperneck 30.475 -5.07925 4.03083
head 11.9382 -2.01842 1.17094
rclavicle 2.49102e-014 -9.93923e-016
rhumerus -39.2846 34.5175 -90.4743
rradius 116.313
rwrist -26.2904
rhand -4.55159 -37.3306
rfingers 7.12502
rthumb 21.2242 -66.1887
lclavicle 2.49102e-014 -9.93923e-016
lhumerus -37.9668 -36.5452 98.4722
lradius 113.261
lwrist 40.3419
lhand -14.3271 -27.5658
lfingers 7.12502
lthumb 11.8137 2.08098
rfemur 0 0 0
rtibia 0
rfoot 0 0
rtoes 0
lfemur -4.09327 -8.62524 -13.0704
ltibia 20.8631
lfoot -25.951 17.9967
ltoes -53.8905
332
root -0.710906 18.6944 5.70114 2.50738 -3.03086 -1.59238
lowerback -0.453034 1.41279 -0.427787
upperback -2.34193 1.88131 0.00456159
thorax -2.15971 0.948228 0.216831
lowerneck -10.9444 -2.95942 -2.14673
upperneck 30.7695 -5.15224 4.27844
head 12.085 -2.03528 1.2857
rclavicle 1.90585e-014 -7.95139e-015
rhumerus -39.2518 34.4559 -90.4041
rradius 116.342
rwrist -26.1975
rhand -4.34998 -37.2734
rfingers 7.12502
rthumb 21.4178 -66.1095
lclavicle 1.90585e-014 -7.95139e-015
lhumerus -37.9403 -36.5902 98.4398
lradius 113.316
lwrist 40.317
lhand -14.2793 -27.6962
lfingers 7.12502
lthumb 11.8598 1.94795
rfemur 0 0 0
rtibia 0
rfoot 0 0
rtoes 0
lfemur -4.05453 -8.59769 -13.1147
ltibia 20.8451
lfoot -25.9571 17.9659
ltoes -53.8416
333
root -0.709839 18.6944 5.70149 2.49397 -3.04857 -1.59917
lowerback -0.470731 1.40972 -0.42657
upperback -2.34259 1.87734 0.00790243
thorax -2.15049 0.946248 0.220107
lowerneck -11.0377 -2.95232 -2.16752
upperneck 31.0963 -5.1497 4.26237
head 12.2369 -2.03239 1.28495
rclavicle 9.87711e-015 1.23246e-014
rhumerus -39.1728 34.4406 -90.3082
rradius 116.34
rwrist -26.0227
rhand -4.09448 -37.2882
rfingers 7.12502
rthumb 21.6632 -66.0962
lclavicle 9.87711e-015 1.23246e-014
lhumerus -37.9056 -36.5832 98.3963
lradius 113.364
lwrist 40.2165
lhand -14.2518 -27.8167
lfingers 7.12502
lthumb 11.8863 1.82588
rfemur 0 0 0
rtibia 0
rfoot 0 0
rtoes 0
lfemur -4.02988 -8.59336 -13.1118
ltibia 20.8303
lfoot -25.9398 17.9698
ltoes -53.8167
334
root -0.708175 18.6943 5.70161 2.49995 -3.07511 -1.63512
lowerback -0.504484 1.40988 -0.387841
upperback -2.34945 1.8781 0.0152368
thorax -2.13757 0.945966 0.206778
lowerneck -11.0962 -2.93493 -2.03659
upperneck 31.3819 -5.10466 4.05247
head 12.3532 -2.01831 1.19019
rclavicle -7.33018e-016 -6.55989e-015
rhumerus -39.1059 34.445 -90.2519
rradius 116.343
rwrist -25.9241
rhand -3.95637 -37.2543
rfingers 7.12502
rthumb 21.7959 -66.047
lclavicle -7.33018e-016 -6.55989e-015
lhumerus -37.8682 -36.5971 98.344
lradius 113.423
lwrist 40.1337
lhand -14.2466 -27.6672
lfingers 7.12502
lthumb 11.8913 1.97507
rfemur 0 0 0
rtibia 0
rfoot 0 0
rtoes 0
lfemur -4.02067 -8.59094 -13.0785
ltibia 20.8186
lfoot -25.9352 17.9859
ltoes -53.8107
335
root -0.706265 18.6946 5.70251 2.49736 -3.10168 -1.67043
lowerback -0.515786 1.41239 -0.344345
upperback -2.36625 1.8819 0.0210503
thorax -2.1473 0.947128 0.188399
lowerneck -11.0798 -2.9069 -1.93981
upperneck 31.5983 -5.05737 3.92238
head 12.4296 -1.99943 1.13228
rclavicle 6.41081e-015 -3.37934e-015
rhumerus -39.0939 34.4619 -90.2448
rradius 116.376
rwrist -25.8988
rhand -3.95153 -37.2097
rfingers 7.12502
rthumb 21.8005 -66.0019
lclavicle 6.41081e-015 -3.37934e-015
lhumerus -37.8405 -36.6146 98.3118
lradius 113.462
lwrist 40.089
lhand -14.2233 -27.4891
lfingers 7.12502
lthumb 11.9137 2.15193
rfemur 0 0 0
rtibia 0
rfoot 0 0
rtoes 0
lfemur -3.99917 -8.53972 -13.0472
ltibia 20.8109
lfoot -25.9107 17.9595
ltoes -53.7881
336
root -0.70415 18.6954 5.70445 2.48219 -3.11387 -1.66018
lowerback -0.524582 1.40683 -0.353783
upperback -2.3847 1.87455 0.0287548
thorax -2.16184 0.943756 0.201596
lowerneck -11.0119 -2.88013 -1.94163
upperneck 31.7571 -5.01289 3.88003
head 12.4776 -1.98407 1.12483
rclavicle 8.52289e-015 5.1684e-015
rhumerus -39.1207 34.5083 -90.212
rradius 116.463
rwrist -25.8758
rhand -3.98902 -37.2212
rfingers 7.12502
rthumb 21.7645 -66.0176
lclavicle 8.52289e-015 5.1684e-015
lhumerus -37.8283 -36.6084 98.3072
lradius 113.481
lwrist 39.9314
lhand -14.1695 -27.7137
lfingers 7.12502
lthumb 11.9657 1.92434
rfemur 0 0 0
rtibia 0
rfoot 0 0
rtoes 0
lfemur -3.97453 -8.54874 -13.0732
ltibia 20.8123
lfoot -25.9295 17.9809
ltoes -53.7654
337
root -0.702418 18.6959 5.70527 2.47415 -3.1141 -1.6283
lowerback -0.547331 1.40208 -0.379763
upperback -2.40444 1.86805 0.0283756
thorax -2.17015 0.941056 0.216111
lowerneck -10.8638 -2.8664 -1.95267
upperneck 31.8233 -4.97388 3.81737
head 12.4703 -1.97741 1.11092
rclavicle -3.73964e-015 5.1684e-015
rhumerus -39.1183 34.5461 -90.1569
rradius 116.539
rwrist -25.8399
rhand -4.09149 -37.1548
rfingers 7.12502
rthumb 21.6661 -65.9625
lclavicle -3.73964e-015 5.1684e-015
lhumerus -37.8088 -36.6105 98.2722
lradius 113.516
lwrist 39.6634
lhand -14.0825 -28.067
lfingers 7.12502
lthumb 12.0495 1.56614
rfemur 0 0 0
rtibia 0
rfoot 0 0
rtoes 0
lfemur -3.9684 -8.62961 -13.1215
ltibia 20.8183
lfoot -26.0286 18.0331
ltoes -53.721
338
root -0.701188 18.6957 5.70437 2.46805 -3.13119 -1.64029
lowerback -0.54098 1.41872 -0.351849
upperback -2.43527 1.89038 0.0263825
thorax -2.20461 0.951719 0.197461
lowerneck -10.6599 -2.86755 -1.9151
upperneck 31.8675 -4.94743 3.69335
head 12.4391 -1.97933 1.06403
rclavicle 3.63527e-014 5.96354e-015
rhumerus -39.0962 34.5405 -90.1104
rradius 116.579
rwrist -25.8331
rhand -4.08204 -36.9133
rfingers 7.12502
rthumb 21.6752 -65.72
lclavicle 3.63527e-014 5.96354e-015
lhumerus -37.7903 -36.6481 98.1993
lradius 113.581
lwrist 39.3815
lhand -13.9084 -28.1825
lfingers 7.12502
lthumb 12.2174 1.44065
rfemur 0 0 0
rtibia 0
rfoot 0 0
rtoes 0
lfemur -3.96613 -8.59138 -13.1096
ltibia 20.8239
lfoot -26.0097 17.9966
ltoes -53.7233
339
root -0.699501 18.6958 5.70322 2.46592 -3.16576 -1.65479
lowerback -0.529784 1.45551 -0.314034
upperback -2.46111 1.93944 0.0116605
thorax -2.23604 0.975368 0.159788
lowerneck -10.4928 -2.87854 -1.89935
upperneck 31.9494 -4.95183 3.63205
head 12.4354 -1.98844 1.04035
rclavicle 1.48219e-014 -6.16232e-015
rhumerus -39.0697 34.4801 -90.054
rradius 116.664
rwrist -25.8928
rhand -4.02151 -36.8117
rfingers 7.12502
rthumb 21.7333 -65.6117
lclavicle 1.48219e-014 -6.16232e-015
lhumerus -37.7591 -36.7713 98.1091
lradius 113.654
lwrist 39.1304
lhand -13.7745 -28.2671
lfingers 7.12502
lthumb 12.3466 1.34838
rfemur 0 0 0
rtibia 0
rfoot 0 0
rtoes 0
lfemur -3.97065 -8.47927 -13.0938
ltibia 20.8313
lfoot -25.942 17.9564
ltoes -53.7995
340
root -0.69748 18.6962 5.70292 2.47689 -3.19997 -1.64043
lowerback -0.553926 1.48566 -0.296349
upperback -2.47349 1.97924 -0.0214013
thorax -2.23366 0.99455 0.115957
lowerneck -10.349 -2.86586 -1.88128
upperneck 32.0096 -4.94396 3.64226
head 12.4294 -1.98271 1.04478
rclavicle -1.89467e-014 -8.15017e-015
rhumerus -39.001 34.4363 -89.9827
rradius 116.784
rwrist -25.9519
rhand -4.16753 -36.9341
rfingers 7.12502
rthumb 21.5931 -65.7502
lclavicle -1.89467e-014 -8.15017e-015
lhumerus -37.6952 -36.9173 97.9952
lradius 113.731
lwrist 38.9858
lhand -13.7322 -28.5877
lfingers 7.12502
lthumb 12.3873 1.02526
rfemur 0 0 0
rtibia 0
rfoot 0 0
rtoes 0
lfemur -3.98717 -8.41424 -13.1144
ltibia 20.8397
lfoot -25.9331 17.975
ltoes -53.854
